<svg width="470" height="470" viewBox="0 0 470 470" fill="none" xmlns="http://www.w3.org/2000/svg">
<path d="M348.026 148.2C376.996 182.191 364.372 231.738 339.678 264.836C302.445 314.74 211.077 341.464 151.848 301.449C106.934 271.096 76.2341 216.435 92.0449 168.307C104.509 130.416 142.927 89.9392 190.153 79.3924C227.198 71.1204 229.003 94.4324 246.167 110.986C253.227 117.791 265.221 117.914 275.129 118.619C290.657 119.728 305.782 121.006 319.694 127.417C331.764 132.963 341.088 140.06 348.026 148.2Z" fill="#4142FE"/>
<path opacity="0.7" d="M348.026 148.2C376.996 182.191 364.372 231.738 339.678 264.836C302.445 314.74 211.077 341.464 151.848 301.449C106.934 271.096 76.2341 216.435 92.0449 168.307C104.509 130.416 142.927 89.9392 190.153 79.3924C227.198 71.1204 229.003 94.4324 246.167 110.986C253.227 117.791 265.221 117.914 275.129 118.619C290.657 119.728 305.782 121.006 319.694 127.417C331.764 132.963 341.088 140.06 348.026 148.2Z" fill="white"/>
<path d="M75.2657 354.615H102.582C102.065 351.278 99.9125 351.861 99.6305 346.681C99.4895 344.078 101.896 340.853 101.689 337.422C101.52 334.602 98.7375 331.707 98.5213 328.483C98.3239 325.569 100.702 322.335 100.467 319.196C100.251 316.235 97.4309 313.387 97.1865 310.303C96.9421 307.22 99.2639 304.024 98.9913 300.988C98.7187 297.952 95.8423 295.141 95.5415 292.143C95.2407 289.144 97.4779 285.741 97.1301 282.743C96.7729 279.612 93.8119 276.905 93.3701 274.019C92.9189 270.814 95.0151 267.374 94.5263 264.619C93.9247 261.226 90.7663 258.763 90.0989 256.253C88.8581 251.553 89.0085 247.079 87.5421 246.788C86.0757 246.496 85.6621 250.895 84.4401 255.821C83.8479 258.303 80.7553 260.812 80.2383 264.215C79.8999 266.96 82.0619 270.344 81.7047 273.54C81.3851 276.36 78.5087 279.18 78.2267 282.273C77.9635 285.205 80.3041 288.43 80.1067 291.494C79.9093 294.558 77.0893 297.313 76.8919 300.339C76.6945 303.366 79.1103 306.534 78.9505 309.514C78.7907 312.494 76.0365 315.464 75.8955 318.416C75.7451 321.527 78.2079 324.667 78.0857 327.562C77.9541 330.758 75.2657 333.691 75.1435 336.492C75.0213 339.885 77.5217 343.025 77.4465 345.61C77.2773 351.25 74.7017 350.065 74.6265 354.577L75.2657 354.615Z" fill="#4142FE"/>
<path opacity="0.2" d="M75.2657 354.615H102.582C102.065 351.278 99.9125 351.861 99.6305 346.681C99.4895 344.078 101.896 340.853 101.689 337.422C101.52 334.602 98.7375 331.707 98.5213 328.483C98.3239 325.569 100.702 322.335 100.467 319.196C100.251 316.235 97.4309 313.387 97.1865 310.303C96.9421 307.22 99.2639 304.024 98.9913 300.988C98.7187 297.952 95.8423 295.141 95.5415 292.143C95.2407 289.144 97.4779 285.741 97.1301 282.743C96.7729 279.612 93.8119 276.905 93.3701 274.019C92.9189 270.814 95.0151 267.374 94.5263 264.619C93.9247 261.226 90.7663 258.763 90.0989 256.253C88.8581 251.553 89.0085 247.079 87.5421 246.788C86.0757 246.496 85.6621 250.895 84.4401 255.821C83.8479 258.303 80.7553 260.812 80.2383 264.215C79.8999 266.96 82.0619 270.344 81.7047 273.54C81.3851 276.36 78.5087 279.18 78.2267 282.273C77.9635 285.205 80.3041 288.43 80.1067 291.494C79.9093 294.558 77.0893 297.313 76.8919 300.339C76.6945 303.366 79.1103 306.534 78.9505 309.514C78.7907 312.494 76.0365 315.464 75.8955 318.416C75.7451 321.527 78.2079 324.667 78.0857 327.562C77.9541 330.758 75.2657 333.691 75.1435 336.492C75.0213 339.885 77.5217 343.025 77.4465 345.61C77.2773 351.25 74.7017 350.065 74.6265 354.577L75.2657 354.615Z" fill="white"/>
<path d="M86.9968 255.793V353.355" stroke="black" stroke-width="0.60661" stroke-miterlimit="10"/>
<path d="M91.2645 266.02L86.8183 269.865L83.1711 265.014" stroke="black" stroke-width="0.60661" stroke-miterlimit="10"/>
<path d="M91.2645 283.006L86.8183 286.841L83.1711 281.991" stroke="black" stroke-width="0.60661" stroke-miterlimit="10"/>
<path d="M91.2645 298.976L86.8183 302.812L83.1711 297.961" stroke="black" stroke-width="0.60661" stroke-miterlimit="10"/>
<path d="M91.2645 317.974L86.8183 321.818L83.1711 316.968" stroke="black" stroke-width="0.60661" stroke-miterlimit="10"/>
<path d="M91.2645 337.178L86.8183 341.023L83.1711 336.172" stroke="black" stroke-width="0.60661" stroke-miterlimit="10"/>
<path d="M56.6631 354.615H77.7473C77.3431 352.039 75.6887 352.491 75.4631 348.496C75.3597 346.484 77.2209 343.993 77.0611 341.342C76.9201 339.171 74.7769 336.934 74.6077 334.443C74.4573 332.196 76.2903 329.743 76.1117 327.28C75.9331 324.817 73.7711 322.787 73.5737 320.408C73.3763 318.03 75.1811 315.567 74.9743 313.217C74.7675 310.867 72.5491 308.705 72.3141 306.393C72.0791 304.081 73.8087 301.449 73.5361 299.174C73.2635 296.899 70.9793 294.671 70.7161 292.443C70.3683 289.962 71.9851 287.311 71.6091 285.168C71.1485 282.545 68.7045 280.646 68.1875 278.71C67.2475 275.11 67.3509 271.632 66.2229 271.406C65.0949 271.181 64.7377 274.574 63.8259 278.381C63.3653 280.261 61.0059 282.235 60.5829 284.858C60.2633 286.982 61.9553 289.558 61.6733 292.039C61.4289 294.248 59.2105 296.373 58.9943 298.779C58.7875 301.044 60.5923 303.535 60.4137 305.904C60.2351 308.273 58.0825 310.388 57.9321 312.729C57.7817 315.069 59.6429 317.504 59.5207 319.807C59.3985 322.11 57.2741 324.403 57.1613 326.678C57.0485 328.953 58.9473 331.51 58.8533 333.738C58.7499 336.21 56.6631 338.438 56.5879 340.637C56.4939 343.26 58.4679 345.676 58.3551 347.668C58.2235 352.002 56.2401 351.109 56.1743 354.596L56.6631 354.615Z" fill="#4142FE"/>
<path opacity="0.2" d="M56.6631 354.615H77.7473C77.3431 352.039 75.6887 352.491 75.4631 348.496C75.3597 346.484 77.2209 343.993 77.0611 341.342C76.9201 339.171 74.7769 336.934 74.6077 334.443C74.4573 332.196 76.2903 329.743 76.1117 327.28C75.9331 324.817 73.7711 322.787 73.5737 320.408C73.3763 318.03 75.1811 315.567 74.9743 313.217C74.7675 310.867 72.5491 308.705 72.3141 306.393C72.0791 304.081 73.8087 301.449 73.5361 299.174C73.2635 296.899 70.9793 294.671 70.7161 292.443C70.3683 289.962 71.9851 287.311 71.6091 285.168C71.1485 282.545 68.7045 280.646 68.1875 278.71C67.2475 275.11 67.3509 271.632 66.2229 271.406C65.0949 271.181 64.7377 274.574 63.8259 278.381C63.3653 280.261 61.0059 282.235 60.5829 284.858C60.2633 286.982 61.9553 289.558 61.6733 292.039C61.4289 294.248 59.2105 296.373 58.9943 298.779C58.7875 301.044 60.5923 303.535 60.4137 305.904C60.2351 308.273 58.0825 310.388 57.9321 312.729C57.7817 315.069 59.6429 317.504 59.5207 319.807C59.3985 322.11 57.2741 324.403 57.1613 326.678C57.0485 328.953 58.9473 331.51 58.8533 333.738C58.7499 336.21 56.6631 338.438 56.5879 340.637C56.4939 343.26 58.4679 345.676 58.3551 347.668C58.2235 352.002 56.2401 351.109 56.1743 354.596L56.6631 354.615Z" fill="white"/>
<path d="M65.7153 278.334V353.647" stroke="black" stroke-width="0.60661" stroke-miterlimit="10"/>
<path d="M69.0053 286.23L65.5743 289.191L62.7637 285.45" stroke="black" stroke-width="0.60661" stroke-miterlimit="10"/>
<path d="M69.0053 299.334L65.5743 302.304L62.7637 298.563" stroke="black" stroke-width="0.60661" stroke-miterlimit="10"/>
<path d="M69.0053 311.666L65.5743 314.627L62.7637 310.886" stroke="black" stroke-width="0.60661" stroke-miterlimit="10"/>
<path d="M69.0053 326.331L65.5743 329.301L62.7637 325.55" stroke="black" stroke-width="0.60661" stroke-miterlimit="10"/>
<path d="M69.0053 341.164L65.5743 344.125L62.7637 340.383" stroke="black" stroke-width="0.60661" stroke-miterlimit="10"/>
<path d="M384.319 354.615H410.78C410.272 351.381 408.195 351.945 407.913 346.935C407.781 344.407 410.112 341.295 409.915 337.968C409.746 335.232 407.048 332.431 406.841 329.301C406.653 326.481 408.956 323.351 408.721 320.314C408.514 317.438 405.779 314.674 405.535 311.695C405.29 308.715 407.556 305.613 407.293 302.671C407.029 299.728 404.247 297.031 403.946 294.107C403.645 291.184 405.826 287.903 405.488 285.046C405.14 282.019 402.273 279.406 401.888 276.586C401.455 273.474 403.486 270.156 403.006 267.468C402.423 264.178 399.359 261.828 398.72 259.365C397.517 254.843 397.667 250.482 396.248 250.19C394.828 249.899 394.367 254.167 393.239 258.942C392.666 261.348 389.667 263.773 389.179 267.073C388.774 269.742 390.899 272.985 390.551 276.078C390.241 278.898 387.449 281.53 387.177 284.538C386.923 287.358 389.188 290.498 388.963 293.468C388.737 296.438 386.039 299.108 385.851 302.031C385.663 304.955 387.994 308.029 387.834 310.924C387.675 313.819 385.015 316.686 384.883 319.544C384.742 322.552 387.12 325.597 386.998 328.398C386.876 331.5 384.253 334.339 384.178 337.046C384.056 340.346 386.471 343.382 386.396 345.882C386.236 351.325 383.745 350.197 383.661 354.568L384.319 354.615Z" fill="#4142FE"/>
<path opacity="0.2" d="M384.319 354.615H410.78C410.272 351.381 408.195 351.945 407.913 346.935C407.781 344.407 410.112 341.295 409.915 337.968C409.746 335.232 407.048 332.431 406.841 329.301C406.653 326.481 408.956 323.351 408.721 320.314C408.514 317.438 405.779 314.674 405.535 311.695C405.29 308.715 407.556 305.613 407.293 302.671C407.029 299.728 404.247 297.031 403.946 294.107C403.645 291.184 405.826 287.903 405.488 285.046C405.14 282.019 402.273 279.406 401.888 276.586C401.455 273.474 403.486 270.156 403.006 267.468C402.423 264.178 399.359 261.828 398.72 259.365C397.517 254.843 397.667 250.482 396.248 250.19C394.828 249.899 394.367 254.167 393.239 258.942C392.666 261.348 389.667 263.773 389.179 267.073C388.774 269.742 390.899 272.985 390.551 276.078C390.241 278.898 387.449 281.53 387.177 284.538C386.923 287.358 389.188 290.498 388.963 293.468C388.737 296.438 386.039 299.108 385.851 302.031C385.663 304.955 387.994 308.029 387.834 310.924C387.675 313.819 385.015 316.686 384.883 319.544C384.742 322.552 387.12 325.597 386.998 328.398C386.876 331.5 384.253 334.339 384.178 337.046C384.056 340.346 386.471 343.382 386.396 345.882C386.236 351.325 383.745 350.197 383.661 354.568L384.319 354.615Z" fill="white"/>
<path d="M395.684 258.904V353.393" stroke="black" stroke-width="0.60661" stroke-miterlimit="10"/>
<path d="M399.81 268.803L395.505 272.525L391.98 267.825" stroke="black" stroke-width="0.60661" stroke-miterlimit="10"/>
<path d="M399.81 285.252L395.505 288.975L391.98 284.275" stroke="black" stroke-width="0.60661" stroke-miterlimit="10"/>
<path d="M399.81 300.725L395.505 304.447L391.98 299.747" stroke="black" stroke-width="0.60661" stroke-miterlimit="10"/>
<path d="M399.81 319.13L395.505 322.852L391.98 318.152" stroke="black" stroke-width="0.60661" stroke-miterlimit="10"/>
<path d="M399.81 337.733L395.505 341.455L391.98 336.755" stroke="black" stroke-width="0.60661" stroke-miterlimit="10"/>
<path d="M366.299 354.615H386.725C386.331 352.115 384.723 352.556 384.516 348.684C384.404 346.738 386.208 344.322 386.049 341.765C385.926 339.65 383.849 337.488 383.68 335.082C383.539 332.901 385.315 330.485 385.137 328.135C384.958 325.785 382.871 323.792 382.683 321.48C382.495 319.168 384.234 316.78 384.037 314.515C383.839 312.249 381.687 310.153 381.452 307.935C381.217 305.716 382.9 303.15 382.646 300.941C382.392 298.732 380.164 296.579 379.826 294.427C379.497 292.02 381.057 289.454 380.69 287.377C380.239 284.839 377.871 282.996 377.382 281.126C376.442 277.629 376.564 274.264 375.502 274.048C374.44 273.831 374.12 277.084 373.18 280.778C372.738 282.658 370.426 284.538 370.04 287.048C369.73 289.106 371.366 291.607 371.103 294.004C370.858 296.147 368.705 298.206 368.499 300.584C368.301 302.774 370.05 305.19 369.881 307.474C369.711 309.758 367.625 311.826 367.474 314.054C367.324 316.282 369.138 318.679 369.016 320.916C368.894 323.153 366.835 325.362 366.732 327.562C366.628 329.761 368.452 332.262 368.367 334.405C368.264 336.793 366.243 338.992 366.168 341.079C366.074 343.617 367.944 345.967 367.888 347.903C367.756 352.096 365.839 351.231 365.773 354.606L366.299 354.615Z" fill="#4142FE"/>
<path opacity="0.2" d="M366.299 354.615H386.725C386.331 352.115 384.723 352.556 384.516 348.684C384.404 346.738 386.208 344.322 386.049 341.765C385.926 339.65 383.849 337.488 383.68 335.082C383.539 332.901 385.315 330.485 385.137 328.135C384.958 325.785 382.871 323.792 382.683 321.48C382.495 319.168 384.234 316.78 384.037 314.515C383.839 312.249 381.687 310.153 381.452 307.935C381.217 305.716 382.9 303.15 382.646 300.941C382.392 298.732 380.164 296.579 379.826 294.427C379.497 292.02 381.057 289.454 380.69 287.377C380.239 284.839 377.871 282.996 377.382 281.126C376.442 277.629 376.564 274.264 375.502 274.048C374.44 273.831 374.12 277.084 373.18 280.778C372.738 282.658 370.426 284.538 370.04 287.048C369.73 289.106 371.366 291.607 371.103 294.004C370.858 296.147 368.705 298.206 368.499 300.584C368.301 302.774 370.05 305.19 369.881 307.474C369.711 309.758 367.625 311.826 367.474 314.054C367.324 316.282 369.138 318.679 369.016 320.916C368.894 323.153 366.835 325.362 366.732 327.562C366.628 329.761 368.452 332.262 368.367 334.405C368.264 336.793 366.243 338.992 366.168 341.079C366.074 343.617 367.944 345.967 367.888 347.903C367.756 352.096 365.839 351.231 365.773 354.606L366.299 354.615Z" fill="white"/>
<path d="M375.069 280.731V353.675" stroke="black" stroke-width="0.60661" stroke-miterlimit="10"/>
<path d="M378.256 288.383L374.928 291.25L372.212 287.621" stroke="black" stroke-width="0.60661" stroke-miterlimit="10"/>
<path d="M378.256 301.073L374.928 303.949L372.212 300.321" stroke="black" stroke-width="0.60661" stroke-miterlimit="10"/>
<path d="M378.256 313.02L374.928 315.887L372.212 312.259" stroke="black" stroke-width="0.60661" stroke-miterlimit="10"/>
<path d="M378.256 327.223L374.928 330.09L372.212 326.471" stroke="black" stroke-width="0.60661" stroke-miterlimit="10"/>
<path d="M378.256 341.577L374.928 344.454L372.212 340.825" stroke="black" stroke-width="0.60661" stroke-miterlimit="10"/>
<path d="M231.39 396.605C340.053 396.605 428.142 387.072 428.142 375.314C428.142 363.555 340.053 354.023 231.39 354.023C122.728 354.023 34.6389 363.555 34.6389 375.314C34.6389 387.072 122.728 396.605 231.39 396.605Z" fill="#4142FE"/>
<path opacity="0.5" d="M231.39 396.605C340.053 396.605 428.142 387.072 428.142 375.314C428.142 363.555 340.053 354.023 231.39 354.023C122.728 354.023 34.6389 363.555 34.6389 375.314C34.6389 387.072 122.728 396.605 231.39 396.605Z" fill="white"/>
<path d="M119.324 251.948L127.342 307.606L102.817 362.943L109.736 364.673L144.798 306.506L147.937 272.854L181.27 297.538L194.636 356.025L202.655 355.245L194.947 285.591L159.104 247.07L156.585 241.251L119.324 251.948Z" fill="#263238" stroke="#263238" stroke-linecap="round" stroke-linejoin="round"/>
<path d="M190.5 153.474L187.774 146.819L195.059 139.261L196.545 139.797L199.882 141.207L202.072 143.5L195.332 154.903L190.5 153.474Z" fill="white" stroke="#263238" stroke-linecap="round" stroke-linejoin="round"/>
<path d="M187.633 146.414C187.633 146.414 187.774 145.07 187.906 142.908C188.038 140.746 186.966 138.857 188.179 138.725C188.804 138.71 189.409 138.942 189.864 139.372C190.318 139.802 190.584 140.394 190.604 141.019C190.745 142.363 190.876 144.779 190.876 144.779C191.845 145.643 192.549 146.764 192.907 148.012C193.443 150.043 190.472 152.609 190.472 152.609L187.633 146.414Z" fill="white" stroke="#263238" stroke-linecap="round" stroke-linejoin="round"/>
<path d="M168.147 186.017L172.246 186.374L190.641 153.605L195.464 155.034L177.782 198.387L169.087 196.357L168.147 186.017Z" fill="white" stroke="#263238" stroke-linecap="round" stroke-linejoin="round"/>
<path d="M114.981 181.138C114.981 181.138 100.148 196.328 100.148 198.65C100.148 200.972 118.393 251.29 119.22 252.634C120.048 253.979 156.82 242.652 156.82 242.238C157.031 240.792 156.795 239.316 156.144 238.008C155.044 235.404 145.616 197.137 145.616 197.137L170.554 200.671L169.341 185.782C169.341 185.782 139.741 180.048 133.452 179.202C127.163 178.356 118.666 177.998 114.981 181.138Z" fill="white" stroke="#263238" stroke-linecap="round" stroke-linejoin="round"/>
<path d="M142.542 187.737L145.597 197.137L146.151 188.827" stroke="#263238" stroke-linecap="round" stroke-linejoin="round"/>
<path d="M116.071 176.908C116.071 176.908 111.7 178.544 111.559 182.097C111.418 185.65 117.848 199.731 117.848 199.731C117.848 199.731 124.954 191.666 126.186 190.848C127.417 190.03 138.622 191.939 138.622 191.939C138.622 191.939 132.982 181.693 126.731 178.271C120.48 174.849 116.071 176.908 116.071 176.908Z" fill="#4142FE" stroke="#263238" stroke-linecap="round" stroke-linejoin="round"/>
<path d="M113.063 173.082C114.471 176.772 116.274 180.299 118.44 183.601C122.134 189.344 130.472 199.581 130.604 196.45C130.735 193.32 125.687 182.097 124.964 177.998C124.24 173.9 124.024 172.8 124.024 172.8C124.024 172.8 115.253 174.84 113.063 173.082Z" fill="white" stroke="#263238" stroke-linecap="round" stroke-linejoin="round"/>
<path d="M104.237 193.142C104.237 193.142 109.106 188.272 115.084 199.12C121.063 209.968 139.12 251.158 139.12 251.158L134.711 251.318C134.711 251.318 114.906 207.138 112.866 202.889C110.826 198.641 107.677 192.549 102.169 195.661L104.237 193.142Z" fill="white" stroke="#263238" stroke-linecap="round" stroke-linejoin="round"/>
<path d="M98.7282 203.209L92.1294 250.378L96.0586 250.529L101.558 203.209H98.7282Z" fill="white" stroke="#263238" stroke-linecap="round" stroke-linejoin="round"/>
<path d="M101.313 158.456C101.313 158.456 100.9 161.182 101.586 162.281C102.272 163.381 107.32 168.429 108.006 167.198C108.692 165.966 109.51 159.132 108.147 157.224C106.784 155.316 103.221 155.448 101.313 158.456Z" fill="#263238" stroke="#263238" stroke-linecap="round" stroke-linejoin="round"/>
<path d="M128.103 152.844C128.103 152.844 131.243 163.645 131.243 166.004C131.243 168.363 128.78 174.342 126.458 175.573C124.136 176.805 123.178 176.513 121.401 176.4C119.624 176.288 113.477 175.573 111.155 173.665C109.953 172.772 108.933 171.659 108.147 170.384C105.965 170.362 103.868 169.532 102.263 168.053C99.6682 165.6 99.2546 162.319 100.9 161.473C102.545 160.627 106.229 163.663 106.229 163.663L105.684 159.979L125.368 151.086C125.935 151.126 126.482 151.308 126.96 151.615C127.439 151.922 127.832 152.345 128.103 152.844Z" fill="white" stroke="#263238" stroke-linecap="round" stroke-linejoin="round"/>
<path d="M123.319 158.86C123.319 158.86 124.136 161.05 124.954 161.454C125.772 161.858 127.558 162.281 126.599 163.334C126.015 163.995 125.322 164.552 124.55 164.979" stroke="#263238" stroke-linecap="round" stroke-linejoin="round"/>
<path d="M123.864 169.247C123.864 169.247 120.311 171.296 118.12 168.156" stroke="#263238" stroke-linecap="round" stroke-linejoin="round"/>
<path d="M352.904 153.793C352.904 153.793 345.676 154.639 344.19 145.08C342.705 135.52 365.81 133.189 374.148 133.612C382.486 134.035 388.587 140.831 389.019 150.391C389.451 159.95 384.131 168.664 383.492 173.759C382.853 178.854 388.803 175.639 388.803 175.639C388.803 175.639 389.019 181.796 380.728 184.983C372.437 188.169 364.372 186.468 362.671 181.796C360.969 177.124 364.551 170.112 365.857 167.771C367.164 165.431 362.887 161.83 362.248 157.582C361.825 155.229 362.046 152.806 362.887 150.569C362.887 150.569 355.452 154 352.904 153.793Z" fill="#263238" stroke="#263238" stroke-linecap="round" stroke-linejoin="round"/>
<path d="M367.784 147.401C367.784 147.401 364.964 150.898 372.278 155.382C379.591 159.866 383.755 159.875 385.25 162.705" stroke="white" stroke-width="0.75" stroke-linecap="round" stroke-linejoin="round"/>
<path d="M387.336 157.92C387.515 158.897 387.54 159.896 387.412 160.881" stroke="white" stroke-width="0.75" stroke-linecap="round" stroke-linejoin="round"/>
<path d="M372.776 144.074C372.776 144.074 372.945 146.405 379.6 149.234C383.793 151.011 386.002 153.728 386.942 156.407" stroke="white" stroke-width="0.75" stroke-linecap="round" stroke-linejoin="round"/>
<path d="M378.012 183.056C378.716 183.716 379.632 184.106 380.597 184.155" stroke="white" stroke-width="0.75" stroke-linecap="round" stroke-linejoin="round"/>
<path d="M375.605 162.206C376.912 163.476 377.766 165.139 378.036 166.941C378.306 168.742 377.977 170.583 377.1 172.18C376.369 173.513 375.94 174.99 375.842 176.507C375.745 178.024 375.982 179.544 376.536 180.959" stroke="white" stroke-width="0.75" stroke-linecap="round" stroke-linejoin="round"/>
<path d="M348.496 143.331C346.851 143.021 345.723 143.124 345.337 144.271" stroke="white" stroke-width="0.75" stroke-linecap="round" stroke-linejoin="round"/>
<path d="M375.605 139.12C375.605 139.12 371.78 144.28 362.962 145.446C358.328 146.057 354.004 144.779 350.789 143.914" stroke="white" stroke-width="0.75" stroke-linecap="round" stroke-linejoin="round"/>
<path d="M346.005 149.733C346.005 149.733 348.665 147.072 351.325 149.563" stroke="white" stroke-width="0.75" stroke-linecap="round" stroke-linejoin="round"/>
<path d="M354.737 178.149C354.737 178.149 337.112 182.379 336.294 183.431C335.477 184.484 318.66 211.754 318.66 211.754L275.664 207.74L275.307 213.728L324.657 221.953L334.179 212.91L337.704 221.953C337.704 221.953 327.364 241.58 324.779 254.035C322.194 266.49 319.374 296.1 319.252 306.788C319.13 317.475 319.722 328.643 322.307 337.808C324.892 346.973 331.707 364.015 331.707 364.015C331.707 364.015 321.489 369.533 317.137 371.535C312.785 373.537 314.552 374.233 315.962 374.59C317.372 374.947 326.067 374.355 331.594 373.65C337.122 372.945 341.699 374.12 341.699 372.005C341.699 369.89 338.992 361.543 338.409 358.958C337.827 356.373 333.709 334.64 333.709 323.473C333.709 312.305 338.174 294.22 338.174 294.22L343.457 274.48C343.457 274.48 341.699 304.795 342.874 313.255C344.049 321.715 360.142 365.773 360.142 365.773C360.142 365.773 352.857 373.058 350.272 376.818C347.687 380.578 348.392 381.743 349.802 381.405C361.082 378.585 364.692 373.65 366.572 372.353C368.452 371.055 366.572 367.54 365.632 365.19C364.692 362.84 361.637 332.873 360.575 325.118C359.512 317.363 357.755 309.965 357.755 309.965C357.755 309.965 371.62 270.955 370.68 255.445C369.74 239.935 363.517 219.838 363.517 219.838C363.517 219.838 377.26 195.633 377.025 193.405C376.79 191.177 363.282 179.183 363.282 179.183L354.737 178.149Z" fill="white" stroke="#263238" stroke-linecap="round" stroke-linejoin="round"/>
<path d="M345.732 255.68C335.796 252.559 329.696 250.341 326.133 248.94C325.578 250.726 325.108 252.465 324.779 254.073C322.194 266.528 319.374 296.138 319.252 306.825C319.13 317.513 319.722 328.68 322.307 337.845C323.144 340.806 324.413 344.576 325.757 348.326C329.253 349.376 333.012 349.119 336.332 347.603C335.063 339.848 333.709 329.931 333.709 323.51C333.709 312.353 338.174 294.258 338.174 294.258L343.457 274.518C343.457 274.518 341.699 304.833 342.874 313.293C343.514 317.936 348.655 333.296 353.158 346.193C356.506 346 359.789 345.187 362.84 343.796C361.966 336.106 361.12 328.521 360.659 325.137C359.606 317.382 357.839 309.984 357.839 309.984C357.839 309.984 370.351 274.781 370.802 257.955C362.379 258.988 353.832 258.212 345.732 255.68Z" fill="#263238" stroke="#263238" stroke-linecap="round" stroke-linejoin="round"/>
<path d="M331.594 373.669C337.112 372.964 341.699 374.139 341.699 372.024C341.546 370.564 341.253 369.122 340.825 367.719L333.7 368.931C333.7 368.931 333.38 367.361 333.23 365.792C333.212 365.374 333.055 364.975 332.784 364.656C332.513 364.338 332.144 364.119 331.735 364.034C331.735 364.034 321.518 369.551 317.165 371.554C312.813 373.556 314.58 374.251 315.99 374.609C317.4 374.966 326.067 374.374 331.594 373.669Z" fill="#263238" stroke="#263238" stroke-linecap="round" stroke-linejoin="round"/>
<path d="M361.082 366.891C360.616 366.581 360.064 366.423 359.503 366.44C357.679 368.32 352.397 373.753 350.272 376.837C347.687 380.597 348.392 381.762 349.802 381.424C361.082 378.604 364.692 373.669 366.572 372.372C367.794 371.526 367.437 369.73 366.769 367.925C365.724 368.683 364.607 369.335 363.432 369.871C362.84 369.871 362.342 367.672 361.082 366.891Z" fill="#263238" stroke="#263238" stroke-linecap="round" stroke-linejoin="round"/>
<path d="M287.057 209.507L281.295 205.155L272.835 204.685V206.565L276.595 207.505L277.065 208.68L267.9 209.62L268.135 213.145L277.3 216.905L286.7 215.495L287.057 209.507Z" fill="white" stroke="#263238" stroke-linecap="round" stroke-linejoin="round"/>
<path d="M363.319 179.201L354.737 178.149C354.737 178.149 337.112 182.379 336.294 183.431C335.477 184.484 318.66 211.754 318.66 211.754L287.048 209.507L286.691 215.495L324.648 221.971L334.17 212.929L337.695 221.971C337.695 221.971 327.355 241.599 324.77 254.054C324.563 254.994 324.356 256.122 324.159 257.297C338.104 265.147 354.377 267.81 370.097 264.817C370.606 261.736 370.811 258.613 370.708 255.492C369.768 239.982 363.545 219.885 363.545 219.885C363.545 219.885 377.288 195.68 377.053 193.452C376.818 191.224 363.319 179.201 363.319 179.201Z" fill="#4142FE" stroke="#263238" stroke-linecap="round" stroke-linejoin="round"/>
<path d="M344.548 213.38C344.548 213.38 350.253 221.464 354.53 222.883" stroke="#263238" stroke-linecap="round" stroke-linejoin="round"/>
<path d="M353.092 196.826C355.517 195.67 365.134 186.919 368.424 183.883C365.669 181.288 363.319 179.183 363.319 179.183L354.737 178.13L351.137 179.013C350.177 182.616 349.495 186.286 349.097 189.993C348.157 198.471 350.159 198.236 353.092 196.826Z" fill="white" stroke="#263238" stroke-linecap="round" stroke-linejoin="round"/>
<path d="M354.267 173.449C354.227 175.814 353.949 178.17 353.44 180.48C352.613 184.005 350.498 193.048 351.795 193.283C353.092 193.518 364.25 181.063 364.25 181.063L365.425 170.845L354.267 173.449Z" fill="white" stroke="#263238" stroke-linecap="round" stroke-linejoin="round"/>
<path d="M337.705 191.309C337.705 191.309 338.41 196.009 338.175 196.827C337.94 197.644 332.882 201.997 332.882 205.174C333.031 207.798 333.466 210.399 334.18 212.929" stroke="#263238" stroke-linecap="round" stroke-linejoin="round"/>
<path d="M305.069 142.463L167.466 144.961C165.432 144.998 163.812 146.678 163.849 148.712L165.537 241.672C165.574 243.707 167.253 245.327 169.288 245.29L306.89 242.792C308.925 242.755 310.545 241.075 310.508 239.041L308.82 146.081C308.783 144.046 307.104 142.426 305.069 142.463Z" fill="#4142FE" stroke="#263238" stroke-width="2" stroke-linecap="round" stroke-linejoin="round"/>
<path d="M163.842 148.727L234.615 201.715C235.696 202.525 237.02 202.946 238.37 202.906C239.721 202.867 241.018 202.371 242.05 201.498L308.564 145.249" fill="#4142FE"/>
<path d="M163.842 148.727L234.615 201.715C235.696 202.525 237.02 202.946 238.37 202.906C239.721 202.867 241.018 202.371 242.05 201.498L308.564 145.249" stroke="#263238" stroke-width="2" stroke-linecap="round" stroke-linejoin="round"/>
<path d="M101.586 161.454L127.84 149.704C127.84 149.704 123.732 140.821 121.683 138.5C119.634 136.178 111.569 135.351 106.512 137.4C101.454 139.449 97.1115 144.92 96.8107 147.655C96.5099 150.391 101.586 161.454 101.586 161.454Z" fill="#263238" stroke="#263238" stroke-linecap="round" stroke-linejoin="round"/>
<path d="M141.498 147.11C141.498 147.11 141.63 149.563 137.945 151.481C134.26 153.399 127.558 153.53 129.194 151.208C130.829 148.887 140.812 146.555 141.498 147.11Z" fill="#263238" stroke="#263238" stroke-linecap="round" stroke-linejoin="round"/>
<path d="M105.684 159.96C107.98 161.031 110.487 161.572 113.02 161.544C115.553 161.517 118.048 160.921 120.32 159.8C128.112 155.974 131.393 151.049 135.764 149.272C140.135 147.495 143.416 146.95 140.821 146.452C138.227 145.954 127.84 149.704 127.84 149.704L105.684 159.96Z" fill="#4142FE" stroke="#263238" stroke-linecap="round" stroke-linejoin="round"/>
<path d="M114.68 150.062C114.273 150.226 113.818 150.226 113.411 150.062C113.198 149.977 113.005 149.851 112.844 149.689C112.682 149.527 112.555 149.334 112.471 149.122L111.531 146.687C111.369 146.269 111.376 145.804 111.552 145.391C111.727 144.979 112.057 144.651 112.471 144.478L117.227 142.598C117.434 142.512 117.656 142.468 117.881 142.468C118.105 142.468 118.327 142.512 118.534 142.598C118.747 142.681 118.941 142.808 119.103 142.969C119.264 143.131 119.391 143.325 119.474 143.538L120.414 145.963C120.5 146.17 120.544 146.392 120.544 146.616C120.544 146.841 120.5 147.063 120.414 147.27C120.327 147.481 120.2 147.673 120.038 147.834C119.877 147.996 119.685 148.123 119.474 148.21L114.718 150.09L114.68 150.062ZM117.425 142.927L112.668 144.807C112.344 144.937 112.084 145.189 111.945 145.51C111.806 145.83 111.799 146.192 111.926 146.518L112.866 148.943C112.996 149.27 113.249 149.534 113.571 149.676C113.73 149.744 113.901 149.778 114.074 149.778C114.246 149.778 114.417 149.744 114.577 149.676L119.333 147.796C119.494 147.733 119.642 147.638 119.766 147.518C119.891 147.398 119.991 147.254 120.06 147.095C120.129 146.936 120.166 146.765 120.168 146.592C120.171 146.419 120.139 146.246 120.076 146.085L119.136 143.66C119.008 143.336 118.758 143.076 118.44 142.936C118.122 142.804 117.764 142.8 117.444 142.927H117.425Z" fill="white"/>
<path d="M116.193 146.687C116.102 146.72 116.002 146.72 115.911 146.687L111.86 145.521C111.82 145.508 111.786 145.481 111.765 145.445C111.745 145.408 111.738 145.365 111.747 145.324C111.752 145.303 111.762 145.282 111.776 145.265C111.789 145.247 111.806 145.233 111.826 145.222C111.845 145.212 111.867 145.205 111.889 145.203C111.911 145.201 111.933 145.204 111.954 145.211L115.977 146.386C116.004 146.394 116.032 146.393 116.057 146.383C116.083 146.372 116.104 146.354 116.118 146.33L118.139 142.72C118.161 142.684 118.195 142.659 118.236 142.648C118.276 142.637 118.319 142.643 118.355 142.664C118.375 142.673 118.392 142.686 118.406 142.702C118.42 142.718 118.431 142.737 118.437 142.757C118.443 142.778 118.445 142.799 118.442 142.82C118.44 142.841 118.432 142.862 118.421 142.88L116.4 146.49C116.356 146.577 116.283 146.647 116.193 146.687Z" fill="white"/>
<path d="M196.14 145.202C195.819 145.202 195.51 145.074 195.283 144.847C195.055 144.619 194.928 144.311 194.928 143.989V139.797C194.928 139.475 195.055 139.167 195.283 138.939C195.51 138.712 195.819 138.584 196.14 138.584C196.462 138.584 196.77 138.712 196.998 138.939C197.225 139.167 197.353 139.475 197.353 139.797V143.989C197.353 144.311 197.225 144.619 196.998 144.847C196.77 145.074 196.462 145.202 196.14 145.202Z" fill="white" stroke="#263238" stroke-linecap="round" stroke-linejoin="round"/>
<path d="M204.074 144.76C203.919 144.798 203.758 144.805 203.601 144.78C203.443 144.756 203.292 144.701 203.156 144.618C203.019 144.535 202.901 144.426 202.807 144.297C202.713 144.168 202.645 144.022 202.608 143.867L201.809 140.577C201.771 140.422 201.764 140.261 201.788 140.104C201.813 139.946 201.868 139.795 201.951 139.659C202.034 139.522 202.143 139.404 202.272 139.31C202.4 139.216 202.547 139.148 202.702 139.111C202.856 139.073 203.017 139.066 203.175 139.09C203.333 139.115 203.484 139.17 203.62 139.253C203.756 139.336 203.875 139.445 203.969 139.574C204.063 139.702 204.13 139.849 204.168 140.004L204.967 143.294C205.005 143.448 205.012 143.609 204.987 143.767C204.963 143.925 204.908 144.076 204.825 144.212C204.742 144.348 204.633 144.467 204.504 144.561C204.375 144.655 204.229 144.722 204.074 144.76Z" fill="white" stroke="#263238" stroke-linecap="round" stroke-linejoin="round"/>
<path d="M202.1 144.76C201.786 144.837 201.454 144.786 201.178 144.618C200.901 144.451 200.702 144.181 200.624 143.867L199.684 139.797C199.646 139.642 199.64 139.481 199.664 139.323C199.688 139.166 199.744 139.014 199.827 138.878C199.91 138.742 200.019 138.623 200.147 138.529C200.276 138.435 200.422 138.368 200.577 138.33C200.891 138.254 201.223 138.305 201.5 138.472C201.776 138.639 201.975 138.909 202.053 139.223L203.04 143.293C203.076 143.452 203.08 143.615 203.052 143.775C203.024 143.935 202.965 144.087 202.877 144.224C202.79 144.36 202.676 144.478 202.543 144.57C202.409 144.662 202.259 144.726 202.1 144.76Z" fill="white" stroke="#263238" stroke-linecap="round" stroke-linejoin="round"/>
<path d="M199.28 144.873C198.962 144.922 198.638 144.843 198.378 144.655C198.118 144.467 197.942 144.184 197.889 143.867L197.231 139.731C197.182 139.413 197.26 139.089 197.448 138.829C197.636 138.569 197.92 138.393 198.237 138.34C198.554 138.291 198.878 138.369 199.139 138.557C199.399 138.745 199.575 139.029 199.628 139.345L200.295 143.481C200.321 143.64 200.314 143.801 200.277 143.957C200.24 144.113 200.172 144.259 200.077 144.389C199.983 144.518 199.864 144.627 199.727 144.71C199.59 144.793 199.438 144.849 199.28 144.873Z" fill="white" stroke="#263238" stroke-linecap="round" stroke-linejoin="round"/>
<path d="M367.371 196.723L360.96 222.441L319.365 233.374L319.478 237.951L367.07 230.901C367.07 230.901 378.698 198.124 378.933 195.304C379.168 192.484 372.823 188.366 372.823 188.366" fill="#4142FE"/>
<path d="M367.371 196.723L360.96 222.441L319.365 233.374L319.478 237.951L367.07 230.901C367.07 230.901 378.698 198.124 378.933 195.304C379.168 192.484 372.823 188.366 372.823 188.366" stroke="#263238" stroke-linecap="round" stroke-linejoin="round"/>
<path d="M319.374 233.374C319.374 233.374 312.089 229.614 311.027 229.257C309.965 228.899 303.742 231.607 301.862 231.729C299.982 231.851 298.337 231.607 299.164 232.782C299.502 233.267 299.964 233.653 300.501 233.901C301.038 234.149 301.631 234.249 302.219 234.192C303.394 234.192 308.094 233.609 308.799 233.609C309.504 233.609 306.684 235.724 304.682 237.482C302.68 239.239 298.459 242.182 298.459 242.774C298.459 243.366 299.634 243.714 300.687 243.592C301.74 243.469 303.159 243.244 303.977 243.244C304.795 243.244 308.799 243.714 310.322 242.887C311.845 242.059 317.494 238.422 317.494 238.422L319.487 237.952L319.374 233.374Z" fill="white" stroke="#263238" stroke-linecap="round" stroke-linejoin="round"/>
<path d="M352.265 149.968C352.265 149.968 347.565 163.128 348.655 167.179C349.746 171.23 353.75 175.78 357.36 175.987C360.969 176.194 367.982 173.759 368.837 171.851C369.693 169.943 370.539 167.809 370.539 167.809C370.539 167.809 374.148 167.809 374.787 165.929C375.427 164.049 375.417 162.319 373.725 161.229C372.633 160.593 371.35 160.366 370.106 160.59C370.106 160.59 366.074 158.71 365.857 154.433C365.734 151.865 365.949 149.292 366.497 146.781C364.411 147.994 362.206 148.989 359.917 149.751C357.41 150.366 354.802 150.44 352.265 149.968Z" fill="white" stroke="#263238" stroke-linecap="round" stroke-linejoin="round"/>
<path d="M354.474 156.04C354.145 157.074 353.534 157.807 353.111 157.676C352.688 157.544 352.613 156.595 352.942 155.551C353.271 154.508 353.882 153.775 354.305 153.916C354.728 154.057 354.803 154.968 354.474 156.04Z" fill="#263238"/>
<path d="M361.289 158.005C360.96 159.039 360.349 159.781 359.926 159.64C359.503 159.499 359.428 158.559 359.757 157.516C360.086 156.472 360.697 155.749 361.12 155.88C361.543 156.012 361.618 156.98 361.289 158.005Z" fill="#263238"/>
<path d="M355.978 155.72C355.978 155.72 355.818 158.71 353.985 159.875L353.158 160.402C352.958 160.529 352.792 160.702 352.672 160.906C352.551 161.11 352.481 161.34 352.467 161.576C352.452 161.812 352.493 162.049 352.587 162.266C352.681 162.484 352.825 162.676 353.008 162.827C353.513 163.285 354.14 163.588 354.812 163.701" stroke="#263238" stroke-linecap="round" stroke-linejoin="round"/>
<path d="M353.318 167.32C353.318 167.32 357.642 169.482 360.302 166.653" stroke="#263238" stroke-linecap="round" stroke-linejoin="round"/>
<path d="M353.148 152.224C353.148 152.224 354.812 150.391 356.316 152.054" stroke="#263238" stroke-linecap="round" stroke-linejoin="round"/>
<path d="M359.475 153.22C359.475 153.22 362.135 151.396 362.962 154.555" stroke="#263238" stroke-linecap="round" stroke-linejoin="round"/>
<path d="M109.736 364.72L127.84 379.14C127.84 379.14 127.69 380.08 125.49 380.08C123.29 380.08 101.435 374.581 100.326 374.581C99.2171 374.581 98.9163 373.791 98.9163 373.011C98.9163 372.231 102.845 362.943 102.845 362.943L109.736 364.72Z" fill="#4142FE" stroke="#263238" stroke-linecap="round" stroke-linejoin="round"/>
<path d="M98.8879 373.011C98.8879 373.791 99.1981 374.581 100.298 374.581C101.398 374.581 123.253 380.08 125.462 380.08C127.671 380.08 127.812 379.14 127.812 379.14L99.4613 371.215C99.2132 371.794 99.0212 372.395 98.8879 373.011Z" fill="white" stroke="#263238" stroke-linecap="round" stroke-linejoin="round"/>
<path d="M194.636 356.025C194.636 356.025 194.477 366.243 194.636 367.192C194.796 368.142 195.266 368.292 196.046 368.292C196.827 368.292 220.891 367.662 221.361 366.873C221.478 366.664 221.511 366.418 221.453 366.186C221.396 365.954 221.252 365.752 221.05 365.622L203.595 356.655L202.655 355.245L194.636 356.025Z" fill="#4142FE" stroke="#263238" stroke-linecap="round" stroke-linejoin="round"/>
<path d="M194.636 367.192C194.796 368.132 195.266 368.292 196.046 368.292C196.827 368.292 220.891 367.662 221.361 366.873C221.478 366.664 221.511 366.418 221.453 366.186C221.396 365.954 221.252 365.752 221.05 365.622L220.11 365.152L194.58 365.66C194.58 366.421 194.58 366.995 194.636 367.192Z" fill="white" stroke="#263238" stroke-linecap="round" stroke-linejoin="round"/>
<path d="M91.3398 249.899L134.42 248.959L136.309 287.32H88.2002L91.3398 249.899Z" fill="white" stroke="#263238" stroke-linecap="round" stroke-linejoin="round"/>
<path d="M134.42 248.959L138.669 249.269C138.669 249.269 144.478 285.591 144.008 285.591C143.538 285.591 136.309 287.32 136.309 287.32L134.42 248.959Z" fill="white" stroke="#263238" stroke-linecap="round" stroke-linejoin="round"/>
<path d="M91.3398 249.899L111.146 272.149L133.743 249.072" stroke="#263238" stroke-linecap="round" stroke-linejoin="round"/>
<path d="M130.284 227.752L134.984 231.578L175.78 241.147C176.856 240.319 177.862 239.405 178.788 238.412C179.061 237.867 185.208 238.553 185.895 238.553C186.581 238.553 187.774 238.139 187.774 238.826C187.774 239.512 187.774 240.33 187.098 240.706C186.421 241.082 183.545 240.978 183.131 241.11C182.717 241.241 180.537 241.928 180.537 241.928L192.7 246.44C192.171 247.052 191.534 247.562 190.82 247.944C189.88 248.357 186.036 248.085 186.036 248.085C184.118 248.767 182.155 249.314 180.161 249.72C178.657 249.861 173.327 247.539 173.327 247.539C173.327 247.539 139.703 244.663 135.727 243.704C131.751 242.745 121.815 235.94 121.815 235.94L130.284 227.752Z" fill="white" stroke="#263238" stroke-linecap="round" stroke-linejoin="round"/>
<path d="M104.998 195.764C101.313 195.219 96.6602 200.276 98.0326 207.796C99.405 215.316 116.344 242.792 116.344 242.792L132.747 228.57C132.747 228.57 108.692 196.319 104.998 195.764Z" fill="white" stroke="#263238" stroke-linecap="round" stroke-linejoin="round"/>
<path d="M339.857 99.6963C336.379 97.8163 334.8 99.3767 333.531 97.8163C332.262 96.2559 337.009 92.1199 327.524 88.0121C327.524 88.0121 326.895 79.1573 313.923 78.8377C300.951 78.5181 304.438 87.6925 300.951 89.9109C297.463 92.1293 296.523 88.6419 293.045 90.8509C289.567 93.0599 291.165 97.4873 288.298 98.1265C285.431 98.7657 281.662 95.3065 278.184 97.4873C274.706 99.6681 274.706 101.605 273.117 101.605C271.529 101.605 268.417 100.336 266.481 101.605C264.544 102.874 262.364 104.425 262.364 104.425H342.386C342.386 104.425 343.335 101.595 339.857 99.6963Z" fill="#4142FE"/>
<path opacity="0.5" d="M339.857 99.6963C336.379 97.8163 334.8 99.3767 333.531 97.8163C332.262 96.2559 337.009 92.1199 327.524 88.0121C327.524 88.0121 326.895 79.1573 313.923 78.8377C300.951 78.5181 304.438 87.6925 300.951 89.9109C297.463 92.1293 296.523 88.6419 293.045 90.8509C289.567 93.0599 291.165 97.4873 288.298 98.1265C285.431 98.7657 281.662 95.3065 278.184 97.4873C274.706 99.6681 274.706 101.605 273.117 101.605C271.529 101.605 268.417 100.336 266.481 101.605C264.544 102.874 262.364 104.425 262.364 104.425H342.386C342.386 104.425 343.335 101.595 339.857 99.6963Z" fill="white"/>
<path d="M186.12 116.043C184.052 114.915 183.112 115.855 182.36 114.915C181.608 113.975 184.419 111.54 178.788 109.096C178.788 109.096 178.421 103.851 170.732 103.663C163.043 103.475 165.092 108.918 163.034 110.243C160.975 111.569 160.411 109.491 158.334 110.807C156.256 112.123 157.206 114.746 155.514 115.122C153.822 115.498 151.575 113.43 149.516 114.746C147.458 116.062 147.448 117.18 146.518 117.18C145.587 117.18 143.698 116.438 142.579 117.18C141.461 117.923 140.135 118.872 140.135 118.872H187.586C187.586 118.872 188.179 117.162 186.12 116.043Z" fill="white"/>
</svg>
