<svg width="16" height="16" viewBox="0 0 16 16" fill="none" xmlns="http://www.w3.org/2000/svg">
<path d="M3.63197 0C3.27997 0.016 2.81597 0.0479999 2.60798 0.0959998C2.28798 0.16 1.98398 0.256 1.74398 0.383999C1.43999 0.527999 1.18399 0.719999 0.959991 0.943998C0.719993 1.184 0.527995 1.44 0.383996 1.744C0.255998 1.984 0.159999 2.288 0.0959991 2.608C0.0479996 2.81599 0.0159999 3.27999 0.0159999 3.63199C0 3.77599 0 3.96799 0 4.06399V11.936V12.368C0.0159999 12.72 0.0479996 13.184 0.0959991 13.392C0.159999 13.712 0.255998 14.016 0.383996 14.256C0.527995 14.56 0.719993 14.816 0.943991 15.04C1.18399 15.28 1.43999 15.472 1.74398 15.616C1.98398 15.744 2.28798 15.84 2.60798 15.904C2.81597 15.952 3.27997 15.984 3.63197 15.984C3.77597 16 3.96796 16 4.06396 16H11.9359H12.3679C12.7199 15.984 13.1839 15.952 13.3919 15.904C13.7119 15.84 14.0159 15.744 14.2559 15.616C14.5599 15.472 14.8159 15.28 15.0399 15.056C15.2799 14.816 15.4719 14.56 15.6159 14.256C15.7439 14.016 15.8399 13.712 15.9039 13.392C15.9519 13.184 15.9839 12.72 15.9839 12.368C15.9999 12.224 15.9999 12.032 15.9999 11.936V3.63199C15.9839 3.27999 15.9519 2.81599 15.9039 2.608C15.8399 2.288 15.7439 1.984 15.6159 1.744C15.4719 1.44 15.2799 1.184 15.0559 0.959998C14.8159 0.719999 14.5599 0.527999 14.2559 0.383999C14.0159 0.256 13.7119 0.16 13.3919 0.0959998C13.1839 0.0479999 12.7199 0.016 12.3679 0.016C12.2239 -1.86264e-09 12.0319 0 11.9359 0H3.63197Z" fill="url(#paint0_linear_2_822)"/>
<path fill-rule="evenodd" clip-rule="evenodd" d="M10.7733 9.05343C10.6308 8.98212 9.93016 8.63746 9.79951 8.58993C9.66888 8.5424 9.57391 8.51862 9.47891 8.66125C9.38388 8.80387 9.11079 9.12474 9.02767 9.21984C8.94454 9.3149 8.86142 9.32681 8.71892 9.25546C8.57639 9.18418 8.11724 9.03375 7.57293 8.54837C7.14931 8.17065 6.86328 7.70409 6.78015 7.56147C6.69703 7.41884 6.77131 7.34175 6.84265 7.27072C6.90675 7.20694 6.98515 7.10434 7.0564 7.02116C7.12765 6.93797 7.1514 6.87853 7.1989 6.78347C7.2464 6.68841 7.22265 6.60519 7.18703 6.53388C7.1514 6.46256 6.8664 5.76138 6.74765 5.47613C6.632 5.19835 6.5145 5.23594 6.42703 5.23157C6.344 5.22744 6.24891 5.22657 6.15391 5.22657C6.05888 5.22657 5.90454 5.26222 5.77388 5.40482C5.64326 5.54744 5.27513 5.89213 5.27513 6.59331C5.27513 7.2945 5.78576 7.97193 5.857 8.06703C5.92829 8.16212 6.8619 9.60106 8.29142 10.2181C8.63142 10.3649 8.89686 10.4526 9.10382 10.5182C9.4452 10.6266 9.75588 10.6114 10.0014 10.5747C10.2752 10.5338 10.8445 10.23 10.9633 9.89727C11.082 9.56449 11.082 9.27924 11.0464 9.21984C11.0108 9.1604 10.9158 9.12474 10.7733 9.05343ZM8.17308 12.6026H8.17117C7.32056 12.6022 6.48628 12.3738 5.75847 11.942L5.58538 11.8393L3.79124 12.3098L4.27014 10.5611L4.15739 10.3819C3.6829 9.62734 3.4323 8.75528 3.43265 7.85987C3.43368 5.24704 5.56023 3.12129 8.17499 3.12129C9.44113 3.12179 10.6313 3.61538 11.5263 4.5111C12.4213 5.40682 12.9139 6.59747 12.9134 7.86369C12.9124 10.4767 10.7859 12.6026 8.17308 12.6026ZM12.2075 3.83045C11.1307 2.75276 9.69872 2.15898 8.17305 2.15836C5.02948 2.15836 2.47097 4.71588 2.46972 7.8595C2.46931 8.86437 2.7319 9.84531 3.23099 10.7099L2.42188 13.6644L5.44529 12.8716C6.27831 13.3258 7.21621 13.5651 8.17077 13.5655H8.17311C11.3164 13.5655 13.8751 11.0077 13.8764 7.86406C13.877 6.3406 13.2843 4.90813 12.2075 3.83045Z" fill="white"/>
<defs>
<linearGradient id="paint0_linear_2_822" x1="7.99993" y1="16" x2="7.99993" y2="3.05175e-05" gradientUnits="userSpaceOnUse">
<stop stop-color="#25CF43"/>
<stop offset="1" stop-color="#61FD7D"/>
</linearGradient>
</defs>
</svg>
